<?xml version="1.0" encoding="utf-8"?>
<!-- Generator: Adobe Illustrator 19.1.0, SVG Export Plug-In . SVG Version: 6.00 Build 0)  -->
<svg version="1.1" id="Layer_1" xmlns="http://www.w3.org/2000/svg" xmlns:xlink="http://www.w3.org/1999/xlink" x="0px" y="0px"
	 viewBox="0 0 185.1 181.4" style="enable-background:new 0 0 185.1 181.4;" xml:space="preserve">
<style type="text/css">
	.st0{fill:#563951;}
	.st1{fill:#FFFFFF;}
</style>
<g>
	<g>
		<path class="st0" d="M171,144.5c-3.5,0.2-7.5,1.1-10.8-0.4c-6.6-3-5.7-12.6-13.6-14.6c-6.1-1.5,4.7-3,6.3-3c0.1-4-11.4-7-14.5-6.5
			c-4,0.6,0.8-3.5,1.8-4.1c-3.6-2.1-7.9,0.2-11.7-0.4c-2.8-0.5-3.7-3.8-0.6-3.3c2,0.3-3.6-1.9-5.8-2.2c-2.3-0.4,3-2.6,4.5-2.1
			c1.5,0.5-6-2.8-6.9-1.9c1.2-1.1,3.4-7.4,3.1-9.2c-2.2,2.8-2.8,7.1-6.3,8.7c-5,2.3-16.9,9.4-9.3,32.5c0.3,0.8,0.1-15.2,10.9-8.8
			c7.3,4.3,13.2,8.3,18.2,15.2c4.4,6.1,12.5,8.7,19.7,9.3c3.9,0.3,7.8,0.1,11.6-0.9c5.8-1.5,11.5-7.8,16.7-1.4
			C186.3,153.8,185.9,143.5,171,144.5z"/>
		<path class="st1" d="M151,139.4c-1.8-0.8,3.7-5.4-10.6-11.1c-3.3-1.3,3.9-1.8,4.7-1.5c0.2-1-8.2-5.1-9.8-5.7c-2.7-1-0.3-1.8-1.2-2
			c-1.8-1.4-8.8-0.1-10.9-0.7c-5.4-1.4-5.6-4.1-6.1-8.3c-5.7-0.1-12.4,5.6-10.2,11.3c-1-2.7,5.9-1.8,7.8-1.3c7.4,2,15.4,9.9,20.8,15
			c5.9,5.5,17.2,16.5,25.7,11.4c-2.6-0.7-4.3-1.3-6.1-3.3C153.6,141.9,152.9,140.2,151,139.4z"/>
	</g>
	<g>
		<g>
			<path class="st0" d="M132,30.8c-8,2.1-3.2-6.4-18.7-5.4c-3.6,0.2-4.4,3.5-6.9,5.5c-2.5,2-6,2.3-8.8,3.6c-4.8,2.2-8,8.4-10,12.9
				c-1.1,2.5-4.4,14.8-2.4,14.9c2.8-0.3,5.7,1.2,8.6,0.9c3.8-0.3,7.7-2.3,11.1-3.8c2.2-1,4.8-2.2,5.6-4.7c0.9-3,0.5-6.5,2.5-9.1
				c2-2.5,4.8-4.5,7.8-5.6c3.4-1.2,8.5,1.6,11.4,0.1c1.7-0.8,3-1.9,4-3.4C138,33.5,134.2,31.3,132,30.8z M85.1,62.3
				c0.1,0,0.1,0,0.1,0C85.2,62.3,85.2,62.3,85.1,62.3z M85.9,60c0.3-2.1,0.7-4.2,1.3-6.3c1.1-3.5,2.6-6.9,4.4-10.1
				c1.5-2.5,3.2-4.7,6.1-5.7c2.6-0.9,5.3-1.5,7.2-3.7c1.9-2.2,3.6-4.7,6.3-5.9c3-1.3,5.6-0.6,8.7-0.6c-2.5,0-5.5,2.9-7.6,4.2
				c-4.6,2.8-8.9,6.1-12.8,9.8c-3.2,3.1-6.5,6.7-8.2,10.9c-0.6,1.5,0-2.2,6.6-12.4c1.7-2.7-5.4,5.4-6.8,8.6
				C89.5,52.5,87.9,56.5,85.9,60z M87,61.3c0.9-1,2.9-2.7,5.2-2.2c2.4,0.5,4.3,1,5.5,1.3C94.2,61.4,91,61.5,87,61.3z M132.3,37
				c-1.7,2.4-2.6,2-5.4,1.5c-5.5-1-11.3,2.2-14.9,6.2c-2.1,2.3-2,5.6-2.9,8.4c-0.4,1.3-1.1,2.6-2.4,3.5c-1.2,0.9-2.6,1.4-4,1.9
				c-2.2,0.9-4.5-0.3-6.7-0.9c-1.7-0.5-4-1.6-5.7-0.6c0.1-0.4,0.4-0.9,0.8-1.3c2.3-2.6,5.3-3.5,8.7-3.4c2,0.1,5.2,0,7,1.1
				c-1.5-0.8-4.5-2.4-6.7-2.4c-2,0-5.2-0.6-6.9,0.7c1.6-1.8,3.2-3.7,5-5.4c3-2.7,7-4.9,10.5-6.9c4.4-2.4,9.6-4,14.5-4.5
				c-2.1,0-4.2,0.1-6.2,0.4c-3.3,0.5-6.5,2.2-9.5,3.6c-2.9,1.4-7.6,3-9.4,5.9c-1.5,2.5-2.6,2.1,0.7-1.6c1.8-1.9,3.5-3.7,4.8-4.7
				c3.2-2.4,6.8-4.3,10.2-6.2c1.7-1,3.4-2.1,5.1-3.1c1.7-1.1,3.5-1.3,5-0.2c1.3,1,2,2.7,3.5,3.1c2.2,0.6,4.4,0.5,6.6,0.8
				C135.8,33.4,132.7,36.4,132.3,37z"/>
			<path class="st0" d="M106.7,53.5c0.8,0.4,1.1,0.7,0.7,0.4C107.2,53.7,107,53.6,106.7,53.5z"/>
			<path class="st0" d="M123.1,35c1.7,0,2.6,0.1,1.5,0C124.2,35,123.7,35,123.1,35z"/>
		</g>
		<g>
			<path class="st0" d="M80.9,59.5C80.9,59.5,80.9,59.5,80.9,59.5C80.9,59.5,80.9,59.5,80.9,59.5z"/>
			<path class="st0" d="M80.9,59.4C81,59.4,81,59.4,80.9,59.4C81,59.4,81,59.4,80.9,59.4z"/>
			<path class="st0" d="M80.9,59.5C80.9,59.5,80.9,59.5,80.9,59.5C80.9,59.5,80.9,59.5,80.9,59.5z"/>
			<path class="st0" d="M81.3,58.9C81.3,58.9,81.3,58.9,81.3,58.9L81.3,58.9z"/>
			<path class="st0" d="M93,13.4c-1.2-0.6-2.6-0.9-3.5-1.7c-0.9-0.8-1-2-1.7-3c-0.6-0.9-1.6-1.6-2.6-2.1c-1.6-0.9-3.5-1.4-5.2-2.1
				c-1.7-0.8-2.9-1.9-4.3-3c-2-1.6-4.8-1.9-7-0.6c-2.3,1.3-2.9,3.9-3.9,6.2c-0.6,1.5-1.5,1.8-3,2.2c-1.9,0.4-3.4,1.3-5.2,1.8
				c-4.8,1.4-9.7,3.5-10.9,9c-0.9,4.4,2,7.9,4.1,11.5c1.4,2.4,2.5,4.9,3.7,7.4c1.6,3.4,3.4,6.6,5.6,9.6c2.1,2.8,5.2,4.9,7.4,7.7
				c3.6,4.5,8.2,4.2,8.2,4.2c2.5-0.2,2.5-0.3,2.9-0.3c0.7-0.1,2.8-0.2,3.1-0.6c1.6-2,3.2-4.2,4.3-6.5c0.7-1.6,1.1-3.2,1.6-4.9
				c0.8-2.6,2.2-5,3.7-7.2c1.8-2.7,3.5-5.3,5.1-8.1c2.1-3.8,1.7-7.2,0.7-11.3C95.6,18.8,95.9,14.8,93,13.4z M71.8,4.3
				c2.1,0.8,4.3,3.9,5.3,5.8c1.2,2.2,0.8,6.9-0.3,9c-1.2,2.4-1.8,8.9-1.7,12.5c0.1,2.8-0.3,5.7-0.3,8.5c-2.2-5.7-2.2-12-2.4-18
				c-0.2-5.3-1-6.2-1.8-7.1C69.1,13.5,67.9,2.9,71.8,4.3z M63.2,11c0.8-0.3,1.7-0.7,2.3-1.7c1-1.5,1.5-4.1,3.3-4.7
				c-0.1,2.8-1.2,5.2-0.6,8.1c0.4,1.7,1.4,2.6,2.2,4c0.9,1.8,0.8,4.3,0.9,6.3c0.1,2.9,0.3,5.8,0.5,8.7c-1.2-3.7-3.3-6.6-5.1-9.9
				c-1.8-3.3-3.3-6.7-5.9-9.5C61.6,11.6,62.4,11.3,63.2,11z M71.2,57.1c-5.8-3.8-11.2-11-14.1-17.2c-1.6-3.5-3.5-6.8-5.7-10
				c-0.1-0.1-0.1-0.2-0.2-0.3c-1.9-2.6-4.3-5.5-3.9-8.9c0.6-5.1,7.1-4.8,10.7-6.4c0.3-0.1,0.5-0.3,0.7-0.4
				c-1.9,7.2,0.2,15.5,4.5,21.4c3.5,4.7,9.4,17.3,9.2,22.4C71.9,57.6,71.5,57.3,71.2,57.1z M75.7,51c-0.3,1.7-0.5,3.4-0.7,5.2
				c0,0.5,0.2,2.4-0.5,2.4c-2.2,0.3-1.2-2.6-1.3-3.3c-0.2-1-2.2-7.3-3.1-9.4c-1.7-3.8-3.5-7.7-6-11.1C60.3,29.6,55.8,19,60.2,13
				c1.4,1.5,3.6,5.5,3.6,5.5c0.9,3.1,2.8,5.3,4.4,8c2.2,3.8,3.7,7.7,4.9,11.8C74.3,42.5,76.3,46.6,75.7,51z M76.7,45.2
				c-0.2-0.6-1-7.6-0.8-9.8c0.5-5.5,0-10.9,2-16.1c1.1-2.8,1.6-6.8,0.1-9.5c-1-1.8-2.6-3.3-4-4.6c2.5,2.2,7.3,0.8,9.2,3.9
				c1.3,2.1,1.4,4.7,2.9,6.8c3.7,5,2.4,13.9-2.2,18C81.5,35.8,81.2,38,81,40c-0.1,0.8-1,4.5-1.5,6.3c-0.7,3.1-1.7,7.3-2.9,10.5
				C76.8,52.9,77.6,49.1,76.7,45.2z M92.6,32.8c-2.7,4.8-6.2,9.3-7.6,14.7c-0.3,1.2-0.5,2.4-0.9,3.5c-0.5,2-1.5,4.3-2.7,6
				c-0.3,0.4-0.5,0.8-0.9,1.1c-0.4,0.4-0.8,0.7-1.2,0.9c-0.2,0.1-2.7,0.6-2.6,0.2c1.3-4.9,3.1-9.7,4.3-14.6c0.8-3.1,1-8,3.5-10.3
				c3-2.6,3.7-6.4,4.3-9.2c0.1-0.4-0.4-8-1.9-10.1c-1.2-1.7-2.3-4.3-2.7-6.3c2.2-0.1,3,3.3,4.6,4.4c1.1,0.8,2.7,1.2,3.5,2.4
				c1,1.4,0.6,3.3,0.8,4.9c0.3,2,1.1,3.8,1.3,5.8C94.7,28.8,93.8,30.7,92.6,32.8z"/>
			<path class="st0" d="M81.3,58.9c0,0-0.1,0.1-0.3,0.4C81.2,59.1,81.3,59,81.3,58.9z"/>
			<path class="st0" d="M81,59.4C81,59.3,81,59.3,81,59.4C81,59.3,81,59.3,81,59.4z"/>
		</g>
		<g>
			<path class="st0" d="M70.1,61.2C70.1,61.1,70.1,61.1,70.1,61.2L70.1,61.2z"/>
			<path class="st0" d="M70.1,61.2c0,0.1,0,0.1,0,0.3C70.2,61.5,70.1,61.3,70.1,61.2z"/>
			<path class="st0" d="M70,61.4c-0.5-3.1-3.8-5.2-5.8-7.4c-2.4-2.8-5.3-5.5-6.5-9c-2.3-6.9-5.9-13.9-9.3-20.3
				c-4.5-8.4-11.9-0.8-19.9-0.7c-6,0.1-1.3,6.7-4.2,9.8c-2,2.2-5.5,1.7-7.4,4.2c-2.8,3.5,0.4,7,3.6,8.4c6.6,3,12,7.9,18.6,10.7
				c5.9,2.5,11.1,5.6,17.4,7.1c3.1,0.7,10,3.8,12.6,1.2c0,0,0.1,0,0.1,0.1l0.6-0.8c0,0,0,0-0.1,0C69.9,63.8,70.1,62.8,70,61.4z
				 M27.7,33.9c0.7-1.2,0.7-2.6,0.7-4c0-1.1-0.1-2.9,0.8-3.6c0.8-0.6,2-0.2,2.9-0.2c1,0,2-0.2,2.9-0.2c-0.3,1.4-0.6,3,0.3,4.2
				c1.4,1.8,2.4,3.5,3.3,7c0.2,0.6,0.5,1.3,1,2c-0.5-0.8-2.3-1.4-3.1-1.9c-1.2-0.6-2.5-1.2-3.8-1.7c-0.4-0.2-4.9-1.8-5.2-1.4
				C27.6,34,27.7,34,27.7,33.9z M54.4,62.2c-1.9-0.6-3.8-1.5-5.6-2.3c-3.4-1.7-6.8-3.3-10.2-5.1c-2.8-1.5-5.6-3-8.3-4.7
				c-2.7-1.7-5.4-3.4-7.9-5.3c0.8,0.1,1.7-0.3,2.5-0.3c4.1-0.3,4.2,0.4,7.4,1.2c3.2,0.7,5.9,2.9,8.9,4.1c1,0.4,1.9,1.1,2.8,1.7
				c2.8,1.9,5.4,4.1,8,6.2c2.5,2,5.2,4,7.5,6.3C57.9,63.4,56.2,62.8,54.4,62.2z M66.9,65.7c-4.2,0.6-7-2.9-9.9-5.4
				c-2.9-2.4-5.8-4.8-8.7-7.1c-2-1.6-4.2-3.5-6.6-4.5C41,48.5,40,48,39,47.5c-1.3-0.7-2.7-1.4-4-1.9c-2.8-1.2-5.9-2.1-9-2.1
				c-0.8,0-1.7,0-2.6,0.2c-0.6,0.1-1.3,0.2-1.8,0.1c-0.8-0.1-1.4-0.6-1.3-1.9c0.1-1.2,1.1-2.6,2.1-3.4c1-0.8,2.2-1.6,3.2-2.4
				c0.9-0.7,1.6-1.1,2.9-0.8c5.3,1.5,10,3.5,14.1,7.2c1.3,1.5,2.8,3,4.2,4.4c1.8,1.8,3.5,3.5,4.3,4.6c0.8,1.1,1.9,1.9,2.9,2.7
				c2.8,2.4,5.8,4.6,8.8,6.7c1.3,0.9,2.7,1.9,4,2.8c0.3,0.2,1.4,0.7,1.5,1C68.4,65.4,67.4,65.6,66.9,65.7z M43.1,31.6
				c2.2,4.5,4.1,9.2,6.9,13.4c2,3,4.2,5.9,6.7,8.5c2,2.1,4.3,3.9,6.6,5.6c1.1,0.8,2.2,1.5,3.4,2.1c0.9,0.4,2.3,1,2.3,2.2
				c0,0.3,0,0.9-0.1,0.9c-3-2.1-15.2-10.7-17.1-13.3c-0.8-1.1-2.5-2.8-4.4-4.7c-2.5-2.5-5.6-5.1-7.3-8.3c-1-1.8-1.2-3.9-2.2-5.7
				c-0.7-1.3-2.1-2.5-2.2-4c-0.1-2,0.4-2.9,2.2-3.3c1.2-0.3,2.4-0.7,3.7-0.9c2.8-0.3,4.7,1,6.2,3.3c3.6,5.5,5.7,12.1,7.6,18.4
				c1,3.1,4.4,5.9,6.6,8.3c1.3,1.4,2.7,2.5,4.1,3.8c0.7,0.7,1.3,1.4,1.9,2.2c0.3,0.4,0.7,1.9,1,2.1c-2.6-2-5.3-3.9-7.9-5.9
				c-4.4-3.5-8-8-11-12.8c-1.6-2.4-2.7-5.1-4.2-7.6c-1.8-3.2-3.9-6.3-5.5-9.5C41.4,28,42.2,29.8,43.1,31.6z M69,62
				C69,62,69,62,69,62C69,62,69,62,69,62z"/>
		</g>
		<g>
			<path class="st0" d="M59.7,64.8c-0.1-0.1-0.2-0.1-0.3-0.2C59.5,64.6,59.6,64.7,59.7,64.8z"/>
			<path class="st0" d="M59.4,64.6c-0.4-0.3-0.7-0.5-0.9-0.6C58.7,64.1,59.1,64.3,59.4,64.6z"/>
			<path class="st0" d="M59.8,64.8C59.8,64.8,59.8,64.8,59.8,64.8C59.8,64.8,59.8,64.8,59.8,64.8z"/>
			<path class="st0" d="M58.5,64c0,0-0.1-0.1-0.1-0.1C58.4,63.9,58.5,64,58.5,64z"/>
			<path class="st0" d="M60.2,65c-0.1-0.1-0.2-0.2-0.4-0.2C59.9,64.9,60.1,65,60.2,65z"/>
			<path class="st0" d="M60.3,65.1C60.3,65.1,60.3,65.1,60.3,65.1C60.3,65.1,60.3,65.1,60.3,65.1z"/>
			<path class="st0" d="M60.3,65.1c0,0-0.1,0-0.1-0.1C60.2,65,60.2,65.1,60.3,65.1z"/>
			<path class="st0" d="M58.2,63.8C58.2,63.8,58.2,63.8,58.2,63.8L58.2,63.8z"/>
			<path class="st0" d="M22.6,47.9c-1.5-1.8-5.7-0.9-7.8,0.7c-2,1.5-2.1,4.8-4,6.4c-3.1,1.8-2.1,6.4-1.9,7.5
				c-6.8,7.8,0.5,9.3,6.6,10c2.7,0.7,4.9,2.5,6.4,5c1.6,2.6,3,5.1,6.4,6.1c7.5,2.3,13.9-3.1,19-7.4c2.6-2.3,5-4.7,8-6.3
				c1.2-0.6,6.4-3.6,5.2-4.6C55.7,63.3,23.5,49,22.6,47.9z M45.8,71.9c-4.9,3.5-8.1,7.5-14.4,9.1c-2.1,0.5-3.8-0.3-5.3-1.8
				c0.6-0.9,1.3-2,1.5-2.4c1.6-1.9,3.7-3.7,6.1-4.5c2.8-1,5.8-1.5,8.8-1.8c1.9-0.2,3.8,0,5.6-0.1C47.3,70.9,46.5,71.4,45.8,71.9z
				 M47,67.6c-3.5,0.5-5.5-0.1-8.9,1c-2.3,0.7-7.7,2.5-9.7,3.8c-0.6,0.4-2.7,2.8-3.8,5c-1.7-2.2-3.4-4.8-5.4-6.1
				C16.4,69.6,7.8,71.2,8.5,67c-0.1,0.5,2.7-4.4,2.9-5.2c-2.4-5.3,2.1-6.5,3.4-9.4c2.9-6.7,14.3,0.3,19.8,3c0.5,0.7,1.2,1.7,1.3,1.8
				c0.7,0.6,1.6,1.2,2.4,1.7c-2.1,0.6-4.7,0.5-6.9,0.8c-1.4,0.2-3.8,0.8-6.3,1.5c3.4-0.5,6.5-0.9,7.4-0.9c2.3-0.2,4.2,0.6,2,2.5
				c-1.8,1.5-3.9,2.4-6.3,2.7c-4.7,0.6-10.4,0.2-13.5,0.7c-3.1,0.5-3.7,1.3-3.9,1.9c-0.2,0.6,4.2-2.2,9.4-1.4
				c11.4,1.9,8.5-0.8,16.5-2.4c2-0.4,4.1-0.9,6.2-0.9c2.5,0,6.4,1.7,8.3,3.4C51.2,66.8,48.1,67.5,47,67.6z M9.1,62.7
				c0,0.1,0,0.2,0,0.1C9.1,62.8,9.1,62.7,9.1,62.7z"/>
			<path class="st0" d="M58.3,63.8C58.3,63.8,58.2,63.8,58.3,63.8C58.2,63.8,58.3,63.8,58.3,63.8z"/>
			<path class="st0" d="M58.3,63.9C58.3,63.9,58.3,63.9,58.3,63.9C58.3,63.9,58.3,63.9,58.3,63.9z"/>
			<path class="st0" d="M58.3,63.8C58.3,63.8,58.3,63.8,58.3,63.8C58.3,63.8,58.3,63.8,58.3,63.8z"/>
			<path class="st0" d="M58.4,63.9C58.4,63.9,58.3,63.9,58.4,63.9C58.3,63.9,58.4,63.9,58.4,63.9z"/>
		</g>
		<path class="st0" d="M89.3,58.9c-2.1-1.1-4.9-1.6-7.2-1.7c-1.2,0-4.8-0.2-5.7,1c-2,2.7,2.3,3.8,3.9,5.6c3.7,4.3,3.4,11,3.4,16.3
			c0.1-4.2-0.4-11.5,2.6-14.9c2.2-2.5,4.4-1.4,7.5-1.8C94.3,63.5,89.9,59.2,89.3,58.9z"/>
		<path class="st0" d="M72.6,68.5c-0.1-1.8-0.5-8.6,1.4-9.7c-3.7,0.2-15.3,1.5-20,14.5c0.8-1.7,3.9-5.7,14.3-0.8
			c12.9,6.1,12.9,5.4,12.9,5.4S72.9,72.2,72.6,68.5z"/>
		<path class="st0" d="M107.9,135.9c-1.6-10.4-5.4-19.6-9.9-29.2c0.8-1.7,2.2-4.9,2.3-5.3c1.1-3.8,2.9-6,1.5-9.8
			c-1.1-3.2-3.2-13.6-3.5-12.6c-1.2-2.1-0.5,5.9-0.5,16.4c-1.4-1.6-3.5-2.5-5.4-2.6c-0.8,0-1.6,0-2.4,0.1c-1-1.6-1.9-3-2.4-3.8
			c-0.4-1.1-0.6-2.2-0.8-3.4c-0.5-3.1-0.5-6.5,0.2-9.7c0.8-2.7,2.9-5.1,6.6-6.9c7.4-3.5,11.9,0.9,13.8,7.9
			c0.6-19.6-18.9-15.6-20.7-1.7c-3.6,4.4-8.6,3.1-15.3-0.1c-6.6-3.2-17.6-7.8-22.2,1.4c-3.5,7.1,2.5,15.6,9,18
			c-4.1-5.3-7.3-14.4,0.7-18.2c6.9-3.2,15.9,2.8,21.5,6.4c2.8,1.9,5.3,4.4,7.5,7.3c0.4,1,0.9,1.9,1.4,2.9
			c-5.3,0.4-10.8,1.6-13.6-3.6c-5.5,6.2,6.6,9.3,11.4,6.7c1.1-0.6,2.2-1,3.2-1.2c2.4,4.9,4.8,9.7,7.1,15.1
			c-5.9-4.9-24.4-17.7-43.4-4c3-0.4,12.5-5.6,26-2.8c0.4,0.1,0.7,0.2,1.1,0.3c-2.7,0.3-6.1,1.6-10,5.1c-8,7.4,0.7,16.1,13.4,11.5
			c2.8-1-19.5-2.3-12.2-9.7c4.4-4.5,8.6-5.8,11.3-6.1c5.6,1.8,11.3,5,14.1,6.6c3.3,7.9,6.4,16.9,8.5,28.7
			c2.5,13.9,3.4,27.9,3.9,41.9C110.9,166.2,110.2,150.9,107.9,135.9z M96.9,104.2c-0.2-0.5-0.5-1-0.7-1.5c-0.2-0.3-2.7-4.3-5-8
			C95.1,94.6,97.5,98.1,96.9,104.2z M97.6,105.8c-0.2-0.4-0.3-0.7-0.5-1.1c0.2-0.3,0.4-0.7,0.6-1C97.7,104.4,97.6,105.1,97.6,105.8z
			"/>
		<path class="st0" d="M43.5,97.2c-6.1-0.7-13,2.4-15.4,8.3c-1.7,4.2-3,22-11.1,17.1c-3.2-2,0.3-3.3,1-3.9c-2.9-0.1-6.1,1.8-4.3,4.9
			c1.5,2.6,5.7,1.9,8,0.8c3-1.4,4.2-4,5.4-6.9c1.5-3.6,2.7-7.5,4.6-11c0.9-1.6,2.2-3.4,4.1-4c2-0.6,3.8,0.6,5.3,1.7
			c-2.5-0.5-5.1,2.7-6.1,4.5c-1.2,2.2-1.4,6.4-4.9,9.9c-1.8,1.8-3.4,3.7-5.4,5.2c2-1.2,4.4-2,6.1-3.6c1.8-1.7,2.7-4.3,3.7-6.5
			c1.6-3.4,3.2-7.2,7.2-8.1c2.1-0.5,4-0.3,5.8,1c-2.9,1-5.4,2.5-7.4,4.9c-2.1,2.5-3.7,5-6.3,7c-3.1,2.3-5.7,3.4-8.8,5.8
			c-2.5,1.9-6,4.5-9.2,3.6c-3.6-1-4.3-3.6-5.2-6.9c-0.5,2.4-1.6,4.7,0.2,6.5c3,3,5,0.7,6.6,2.2c0.7,0.6-2.9,4-7.2,3.9
			c-2.1-0.1-5.2-2.2-6.2-3.9c-0.8-1.4,0.3-2.8-1.3-3.5c-1.4-0.7-2.6,0.7-2.9,2c-0.5,2.1,1,3.8,2.6,4.8c4.1,2.7,10,3.2,14.2,0.5
			c2-1.2,3.6-2.9,5.4-4.4c2.1-1.7,4.4-3,6.7-4.2c4.8-2.5,8.9-5.7,12-10.2c0.8-1.2,4.7-6.7,5.2-3.3c0.5,3.5-1.6,7.6-3.2,9.1
			c-3.3,3.2-9.3,2-13.4,4c-4.6,2.3-6.6,7.1-8,12.1c-1,4.9,1.8-2.3,2.5-3.6c1-1.8,2-3.7,3.6-5.1c2.5-2.2,4.7-4,8.1-3.4
			c3.5,0.7,8.8-0.7,11.4-3.2c1.9-1.8,3.6-3.9,4.3-6.4c0.2-0.8,0.1-6.5,1.7-4.9c0.8,0.9,0.8,3.4,0.7,4.5c-0.5,4.6-3.7,9.8-8.6,10.7
			c-3.5,0.6-6.7,1.1-9.7,1.4c-2.4,0.2-4.4,0.1-6.4,1.6c-3,2.2-5.3,6.2-3.8,9.9c1.3,3.1,5.9,2.7,5.5-1c-2.1,0.4-5.4,0.9-4-3.7
			c1.1-3.5,5.1-4.7,8.6-5.1c4.3-0.6,8.6,1,12.9,0.4c8.2-1.2,10.6-9.8,9-16.8C56,105.1,51,98.1,43.5,97.2z"/>
	</g>
</g>
</svg>
